<svg id="rejoda_logo" data-name="rejoda logo" xmlns="http://www.w3.org/2000/svg" xmlns:xlink="http://www.w3.org/1999/xlink" viewBox="0 0 403.54 387.61"><defs><radialGradient id="radial-gradient" cx="277.85" cy="239.29" r="136.8" gradientUnits="userSpaceOnUse"><stop offset="0" stop-color="#3fdce8"/><stop offset="1" stop-color="#3685ca"/></radialGradient><radialGradient id="radial-gradient-2" cx="324.91" cy="294.18" r="136.76" xlink:href="#radial-gradient"/><radialGradient id="radial-gradient-3" cx="397.54" cy="351.04" r="82.05" gradientUnits="userSpaceOnUse"><stop offset="0" stop-color="#aeeb8a"/><stop offset="1" stop-color="#5aa396"/></radialGradient><radialGradient id="radial-gradient-4" cx="205.65" cy="183.41" r="81.52" xlink:href="#radial-gradient-3"/></defs><rect id="logo_background" data-name="logo background" width="403.54" height="387.61" style="fill:#191e3e"/><g id="logo"><path id="path4" d="M408.75,138.75c.23-4.53-1.74-9.34-2.25-10.58-2.28-5.56-11.53-18.74-29.26-26.19a67.19,67.19,0,0,0-26.83-5.14,30.6,30.6,0,0,1-.16,10.73c-1.81,9.16-7.88,16.27-14.83,22.32-15.38,13.4-31.6,25.9-48,38-28.19,20.87-57.38,40.42-85,62-20.27,15.81-37.63,34.86-48.32,58.89-11,24.68-10,48.7,8,69.45,7.91,9.13,19.22,15.5,29.55,22.26l1.92,1.23c-3.82-13.12-3.44-29.91-.88-40,4.62-18.16,16.1-32,28.91-44.82,23.51-23.6,52-40.15,80.32-57.08,24.29-14.52,48.32-29.75,70.95-46.69,13.12-9.8,31.36-25.18,35.6-50.11h0C408.49,143.08,408.72,139.37,408.75,138.75Z" transform="translate(-99.56 -75.66)" style="fill:url(#radial-gradient)"/><path id="path2" d="M414.31,155a26.48,26.48,0,0,1-5.95-3.42c4.61,13.71,4.46,33.67.36,45.51-6.38,18.46-18.3,33.56-33.34,45.09-23.17,17.75-47.56,34-71.92,50.11-19,12.62-39.2,23.58-58.19,36.29-19.32,12.91-43.61,31-50.9,64-.62,4.86.91,10.6,3.08,15.14,9.18,19.2,33.36,31.55,55.07,28.58-2-11,2.95-19.76,10.13-27.09,8.51-8.68,17.29-17.33,27.05-24.51,23.83-17.54,48.38-34.1,72.46-51.3,28.1-20.07,55.58-40.8,75.91-69.48C471,217.57,454.42,172.66,414.31,155Z" transform="translate(-99.56 -75.66)" style="fill:url(#radial-gradient-2)"/><path id="path2-2" data-name="path2" d="M442.23,265c28.26,6.87,41.52,34.05,27.68,58-7.75,13.4-18.76,25.71-30.66,35.72-17.9,15.07-37.89,27.67-56.95,41.37-4.21,3-8.38,6.12-12.34,9.46-11.42,9.62-13.45,12.88-17.25,27.48-6.29-2-13-3.14-18.65-6.23-16.54-9-19-24.12-6.56-39.06,14.31-17.18,33.46-28.05,52.21-39.57,16.32-10,32-21.15,47.53-32.34,4.85-3.48,8.8-8.46,12.46-13.28C449.27,294,453.42,280.61,442.23,265Z" transform="translate(-99.56 -75.66)" style="fill:url(#radial-gradient-3)"/><path id="path1" d="M160.5,268.59c-29.21-7.43-40.93-35.53-26.13-61.12,10-17.22,24.71-30,40.61-41.54,20.45-14.87,41.24-29.32,61.06-45,6.45-5.1,10.32-13.45,17-22.5,8-1.48,20.64,4.46,27.2,15.16,5.16,8.43,4,17.67-4.09,27.79-14.62,18.3-34.85,29.16-54.42,41-14.31,8.66-28.15,18.12-41.82,27.76a74.65,74.65,0,0,0-13.73,13.33C155,237,148.38,251.38,160.5,268.59Z" transform="translate(-99.56 -75.66)" style="fill:url(#radial-gradient-4)"/></g></svg>