<svg id="rejoda_logo" data-name="rejoda logo" xmlns="http://www.w3.org/2000/svg" xmlns:xlink="http://www.w3.org/1999/xlink" viewBox="0 0 392.35 445.75"><defs><radialGradient id="radial-gradient" cx="277.85" cy="239.29" r="136.8" gradientUnits="userSpaceOnUse"><stop offset="0" stop-color="#3fdce8"/><stop offset="1" stop-color="#3685ca"/></radialGradient><radialGradient id="radial-gradient-2" cx="324.91" cy="294.18" r="136.76" xlink:href="#radial-gradient"/><radialGradient id="radial-gradient-3" cx="397.54" cy="351.04" r="82.05" gradientUnits="userSpaceOnUse"><stop offset="0" stop-color="#aeeb8a"/><stop offset="1" stop-color="#5aa396"/></radialGradient><radialGradient id="radial-gradient-4" cx="205.65" cy="183.41" r="81.52" xlink:href="#radial-gradient-3"/><linearGradient id="linear-gradient" x1="174.4" y1="511.12" x2="115.09" y2="511.12" xlink:href="#radial-gradient-3"/><linearGradient id="linear-gradient-2" x1="236.71" y1="511.43" x2="186.18" y2="511.43" xlink:href="#radial-gradient-3"/><linearGradient id="linear-gradient-3" x1="280.85" y1="511.82" x2="245.11" y2="511.82" xlink:href="#radial-gradient-3"/><linearGradient id="linear-gradient-4" x1="359.1" y1="511.47" x2="296.27" y2="511.47" xlink:href="#radial-gradient-3"/><linearGradient id="linear-gradient-5" x1="434.58" y1="511.12" x2="374.89" y2="511.12" xlink:href="#radial-gradient-3"/><linearGradient id="linear-gradient-6" x1="507.43" y1="511.43" x2="445.61" y2="511.43" xlink:href="#radial-gradient-3"/></defs><g id="logo"><path id="path4" d="M408.75,138.75c.23-4.53-1.74-9.34-2.25-10.58-2.28-5.56-11.53-18.74-29.26-26.19a67.19,67.19,0,0,0-26.83-5.14,30.6,30.6,0,0,1-.16,10.73c-1.81,9.16-7.88,16.27-14.83,22.32-15.38,13.4-31.6,25.9-48,38-28.19,20.87-57.38,40.42-85,62-20.27,15.81-37.63,34.86-48.32,58.89-11,24.68-10,48.7,8,69.45,7.91,9.13,19.22,15.5,29.55,22.26l1.92,1.23c-3.82-13.12-3.44-29.91-.88-40,4.62-18.16,16.1-32,28.91-44.82,23.51-23.6,52-40.15,80.32-57.08,24.29-14.52,48.32-29.75,70.95-46.69,13.12-9.8,31.36-25.18,35.6-50.11h0C408.49,143.08,408.72,139.37,408.75,138.75Z" transform="translate(-115.09 -96.84)" style="fill:url(#radial-gradient)"/><path id="path2" d="M414.31,155a26.48,26.48,0,0,1-5.95-3.42c4.61,13.71,4.46,33.67.36,45.51-6.38,18.46-18.3,33.56-33.34,45.09-23.17,17.75-47.56,34-71.92,50.11-19,12.62-39.2,23.58-58.19,36.29-19.32,12.91-43.61,31-50.9,64-.62,4.86.91,10.6,3.08,15.14,9.18,19.2,33.36,31.55,55.07,28.58-2-11,2.95-19.76,10.13-27.09,8.51-8.68,17.29-17.33,27.05-24.51,23.83-17.54,48.38-34.1,72.46-51.3,28.1-20.07,55.58-40.8,75.91-69.48C471,217.57,454.42,172.66,414.31,155Z" transform="translate(-115.09 -96.84)" style="fill:url(#radial-gradient-2)"/><path id="path2-2" data-name="path2" d="M442.23,265c28.26,6.87,41.52,34.05,27.68,58-7.75,13.4-18.76,25.71-30.66,35.72-17.9,15.07-37.89,27.67-56.95,41.37-4.21,3-8.38,6.12-12.34,9.46-11.42,9.62-13.45,12.88-17.25,27.48-6.29-2-13-3.14-18.65-6.23-16.54-9-19-24.12-6.56-39.06,14.31-17.18,33.46-28.05,52.21-39.57,16.32-10,32-21.15,47.53-32.34,4.85-3.48,8.8-8.46,12.46-13.28C449.27,294,453.42,280.61,442.23,265Z" transform="translate(-115.09 -96.84)" style="fill:url(#radial-gradient-3)"/><path id="path1" d="M160.5,268.59c-29.21-7.43-40.93-35.53-26.13-61.12,10-17.22,24.71-30,40.61-41.54,20.45-14.87,41.24-29.32,61.06-45,6.45-5.1,10.32-13.45,17-22.5,8-1.48,20.64,4.46,27.2,15.16,5.16,8.43,4,17.67-4.09,27.79-14.62,18.3-34.85,29.16-54.42,41-14.31,8.66-28.15,18.12-41.82,27.76a74.65,74.65,0,0,0-13.73,13.33C155,237,148.38,251.38,160.5,268.59Z" transform="translate(-115.09 -96.84)" style="fill:url(#radial-gradient-4)"/></g><g id="logo_name" data-name="logo name"><path id="logo_R" data-name="logo R" d="M163.49,541.54a5.26,5.26,0,0,1-2.57-.47,3.43,3.43,0,0,1-1.32-1.44,49.59,49.59,0,0,0-3.07-5q-2-2.82-4.27-5.82c-1.54-2-3.24-4-5.07-6a65,65,0,0,0-5.65-5.43H128.13v24.16h-10c-2,0-3-.66-3-2V482.36q5.5-.71,12.41-1.18t13.92-.47q15,0,21.82,4.56T170,499a13.92,13.92,0,0,1-4.33,10.61,24.94,24.94,0,0,1-11.47,5.82,62.87,62.87,0,0,1,6.08,5.91q3.08,3.39,5.77,7t4.89,7a58.63,58.63,0,0,1,3.45,6.17Zm-21.57-31.2a36.3,36.3,0,0,0,6.08-.48,14.12,14.12,0,0,0,4.89-1.69,8.22,8.22,0,0,0,3.2-3.43,12.36,12.36,0,0,0,1.13-5.61,13.29,13.29,0,0,0-1-5.56,8.32,8.32,0,0,0-2.94-3.48,12.31,12.31,0,0,0-5-1.78,45,45,0,0,0-7-.48q-4.26,0-7.65.18c-2.25.11-4.09.26-5.51.43v21.9Z" transform="translate(-115.09 -96.84)" style="fill:url(#linear-gradient)"/><path id="logo_E" data-name="logo E" d="M236.71,541.54H189.19c-2,0-3-.66-3-2V481.31h46.15c1.92,0,2.88.67,2.88,2v5.48H199.35V507.3h29.72c1.92,0,2.88.67,2.88,2v5.56h-32.6v19.21H233.7a4,4,0,0,1,2.2.52,1.66,1.66,0,0,1,.81,1.48Z" transform="translate(-115.09 -96.84)" style="fill:url(#linear-gradient-2)"/><path id="logo_J" data-name="logo J" d="M280.85,522.25a30.88,30.88,0,0,1-1.13,8.86,13.88,13.88,0,0,1-3.82,6.26,16.73,16.73,0,0,1-7.21,3.74,44.85,44.85,0,0,1-11.41,1.22,61,61,0,0,1-6.34-.26,28.57,28.57,0,0,1-3.95-.7,2.52,2.52,0,0,1-1.56-1.09,3.23,3.23,0,0,1-.32-1.43v-4.43c1.67.11,3.14.19,4.39.21s2.72,0,4.39,0a25.41,25.41,0,0,0,7.4-.87,9.23,9.23,0,0,0,4.14-2.39,7.65,7.65,0,0,0,1.82-3.65,23.27,23.27,0,0,0,.43-4.65V481.31h10.16c2,0,3,.67,3,2Z" transform="translate(-115.09 -96.84)" style="fill:url(#linear-gradient-3)"/><path id="logo_O" data-name="logo O" d="M350.44,536.68a23.17,23.17,0,0,1-10,4.65,60.86,60.86,0,0,1-12.85,1.26,60.08,60.08,0,0,1-12.79-1.26,23.12,23.12,0,0,1-9.9-4.65,21.67,21.67,0,0,1-6.4-9.48q-2.25-6.08-2.26-15.73t2.26-15.73a21.7,21.7,0,0,1,6.4-9.47,23.12,23.12,0,0,1,9.9-4.65,60.08,60.08,0,0,1,12.79-1.26,60.86,60.86,0,0,1,12.85,1.26,23.17,23.17,0,0,1,10,4.65,21.7,21.7,0,0,1,6.4,9.47q2.25,6.09,2.26,15.73t-2.26,15.73A21.67,21.67,0,0,1,350.44,536.68Zm-14.17-2.87a11.5,11.5,0,0,0,5.58-4,17.35,17.35,0,0,0,2.95-7.21,71.33,71.33,0,0,0,0-22.34,17.47,17.47,0,0,0-2.95-7.21,11.26,11.26,0,0,0-5.51-3.91,33,33,0,0,0-17.43,0,11.24,11.24,0,0,0-5.52,3.91,16.79,16.79,0,0,0-2.88,7.21,76.49,76.49,0,0,0,0,22.34,16.69,16.69,0,0,0,2.88,7.21,11.32,11.32,0,0,0,5.52,3.92,27.5,27.5,0,0,0,8.71,1.17A27.87,27.87,0,0,0,336.27,533.81Z" transform="translate(-115.09 -96.84)" style="fill:url(#linear-gradient-4)"/><path id="logo_D" data-name="logo D" d="M377.9,541.54c-2,0-3-.66-3-2V482.36c1.93-.23,4-.45,6.21-.66s4.47-.37,6.77-.52,4.54-.26,6.71-.34,4.22-.13,6.14-.13a65.27,65.27,0,0,1,15.3,1.56,24.74,24.74,0,0,1,10.53,5.13,20.73,20.73,0,0,1,6.09,9.38,53.34,53.34,0,0,1,0,28.51,21.63,21.63,0,0,1-6,9.43,24,24,0,0,1-10.34,5.22,62.22,62.22,0,0,1-15.11,1.6Zm22.07-7.3a47.27,47.27,0,0,0,9.41-.82,13.21,13.21,0,0,0,6.64-3.35,15.13,15.13,0,0,0,3.89-7.17,49.1,49.1,0,0,0,1.25-12.3,48.47,48.47,0,0,0-1.06-11.16,15,15,0,0,0-3.51-7,12.8,12.8,0,0,0-6.46-3.52,43.48,43.48,0,0,0-9.91-.95c-1.92,0-4.05.05-6.39.17s-4.27.26-5.77.43v45.63Z" transform="translate(-115.09 -96.84)" style="fill:url(#linear-gradient-5)"/><path id="logo_A" data-name="logo A" d="M496.77,541.54c-1.75,0-2.75-.66-3-2q-.88-3.91-1.82-7.52T490,524.77H462q-1.26,4.17-2.26,8.43c-.67,2.84-1.29,5.62-1.88,8.34h-9.65c-1.84,0-2.72-.72-2.64-2.17a37.24,37.24,0,0,1,1.13-5.13q2.26-8.43,5-16.12t5.64-14.43q2.88-6.74,5.83-12.38c2-3.77,3.83-7.1,5.58-10h12.54a4.63,4.63,0,0,1,2.26.44,3.29,3.29,0,0,1,1.25,1.39q2.64,4.42,5.77,10.6t6.21,13.73q3.06,7.57,5.83,16.21t4.76,17.86Zm-8.4-23.9q-2.88-8.34-6.08-15.51T476,488.79q-3,6.16-6.21,13.34t-6.08,15.51Z" transform="translate(-115.09 -96.84)" style="fill:url(#linear-gradient-6)"/></g></svg>