<svg id="rejoda_logo" data-name="rejoda logo" xmlns="http://www.w3.org/2000/svg" xmlns:xlink="http://www.w3.org/1999/xlink" viewBox="0 0 572.61 520.64"><defs><radialGradient id="radial-gradient" cx="277.85" cy="239.29" r="136.8" gradientUnits="userSpaceOnUse"><stop offset="0" stop-color="#3fdce8"/><stop offset="1" stop-color="#3685ca"/></radialGradient><radialGradient id="radial-gradient-2" cx="324.91" cy="294.18" r="136.76" xlink:href="#radial-gradient"/><radialGradient id="radial-gradient-3" cx="397.54" cy="351.04" r="82.05" gradientUnits="userSpaceOnUse"><stop offset="0" stop-color="#aeeb8a"/><stop offset="1" stop-color="#5aa396"/></radialGradient><radialGradient id="radial-gradient-4" cx="205.65" cy="183.41" r="81.52" xlink:href="#radial-gradient-3"/><linearGradient id="linear-gradient" x1="174.4" y1="511.12" x2="115.09" y2="511.12" xlink:href="#radial-gradient-3"/><linearGradient id="linear-gradient-2" x1="236.71" y1="511.43" x2="186.18" y2="511.43" xlink:href="#radial-gradient-3"/><linearGradient id="linear-gradient-3" x1="280.85" y1="511.82" x2="245.11" y2="511.82" xlink:href="#radial-gradient-3"/><linearGradient id="linear-gradient-4" x1="359.1" y1="511.47" x2="296.27" y2="511.47" xlink:href="#radial-gradient-3"/><linearGradient id="linear-gradient-5" x1="434.58" y1="511.12" x2="374.89" y2="511.12" xlink:href="#radial-gradient-3"/><linearGradient id="linear-gradient-6" x1="507.43" y1="511.43" x2="445.61" y2="511.43" xlink:href="#radial-gradient-3"/><linearGradient id="linear-gradient-7" x1="30.87" y1="617.48" x2="30.87" y2="578.89" gradientUnits="userSpaceOnUse"><stop offset="0" stop-color="#dd2a59" stop-opacity="0.5"/><stop offset="0" stop-color="#e32755" stop-opacity="0.6"/><stop offset="1" stop-color="#3685ca"/></linearGradient><linearGradient id="linear-gradient-8" x1="67.85" y1="616.88" x2="67.85" y2="579.43" xlink:href="#linear-gradient-7"/><linearGradient id="linear-gradient-9" x1="106.12" y1="616.88" x2="106.12" y2="579.05" xlink:href="#linear-gradient-7"/><linearGradient id="linear-gradient-10" x1="143.48" y1="616.88" x2="143.48" y2="579.43" xlink:href="#linear-gradient-7"/><linearGradient id="linear-gradient-11" x1="171.42" y1="616.88" x2="171.42" y2="579.43" xlink:href="#linear-gradient-7"/><linearGradient id="linear-gradient-12" x1="201.38" y1="616.88" x2="201.38" y2="579.43" xlink:href="#linear-gradient-7"/><linearGradient id="linear-gradient-13" x1="242.76" y1="617.48" x2="242.76" y2="578.89" xlink:href="#linear-gradient-7"/><linearGradient id="linear-gradient-14" x1="304.43" y1="616.88" x2="304.43" y2="579.43" xlink:href="#linear-gradient-7"/><linearGradient id="linear-gradient-15" x1="340.78" y1="616.88" x2="340.78" y2="579.43" xlink:href="#linear-gradient-7"/><linearGradient id="linear-gradient-16" x1="367.7" y1="616.88" x2="367.7" y2="579.43" xlink:href="#linear-gradient-7"/><linearGradient id="linear-gradient-17" x1="407.2" y1="616.88" x2="407.2" y2="579.43" xlink:href="#linear-gradient-7"/><linearGradient id="linear-gradient-18" x1="460.8" y1="617.48" x2="460.8" y2="578.89" xlink:href="#linear-gradient-7"/><linearGradient id="linear-gradient-19" x1="497.08" y1="616.88" x2="497.08" y2="579.43" xlink:href="#linear-gradient-7"/><linearGradient id="linear-gradient-20" x1="537.66" y1="616.88" x2="537.66" y2="579.05" xlink:href="#linear-gradient-7"/><linearGradient id="linear-gradient-21" x1="574.81" y1="616.88" x2="574.81" y2="579.43" xlink:href="#linear-gradient-7"/></defs><g id="logo"><path id="path4" d="M408.75,138.75c.23-4.53-1.74-9.34-2.25-10.58-2.28-5.56-11.53-18.74-29.26-26.19a67.19,67.19,0,0,0-26.83-5.14,30.6,30.6,0,0,1-.16,10.73c-1.81,9.16-7.88,16.27-14.83,22.32-15.38,13.4-31.6,25.9-48,38-28.19,20.87-57.38,40.42-85,62-20.27,15.81-37.63,34.86-48.32,58.89-11,24.68-10,48.7,8,69.45,7.91,9.13,19.22,15.5,29.55,22.26l1.92,1.23c-3.82-13.12-3.44-29.91-.88-40,4.62-18.16,16.1-32,28.91-44.82,23.51-23.6,52-40.15,80.32-57.08,24.29-14.52,48.32-29.75,70.95-46.69,13.12-9.8,31.36-25.18,35.6-50.11h0C408.49,143.08,408.72,139.37,408.75,138.75Z" transform="translate(-16.27 -96.84)" style="fill:url(#radial-gradient)"/><path id="path2" d="M414.31,155a26.48,26.48,0,0,1-5.95-3.42c4.61,13.71,4.46,33.67.36,45.51-6.38,18.46-18.3,33.56-33.34,45.09-23.17,17.75-47.56,34-71.92,50.11-19,12.62-39.2,23.58-58.19,36.29-19.32,12.91-43.61,31-50.9,64-.62,4.86.91,10.6,3.08,15.14,9.18,19.2,33.36,31.55,55.07,28.58-2-11,2.95-19.76,10.13-27.09,8.51-8.68,17.29-17.33,27.05-24.51,23.83-17.54,48.38-34.1,72.46-51.3,28.1-20.07,55.58-40.8,75.91-69.48C471,217.57,454.42,172.66,414.31,155Z" transform="translate(-16.27 -96.84)" style="fill:url(#radial-gradient-2)"/><path id="path2-2" data-name="path2" d="M442.23,265c28.26,6.87,41.52,34.05,27.68,58-7.75,13.4-18.76,25.71-30.66,35.72-17.9,15.07-37.89,27.67-56.95,41.37-4.21,3-8.38,6.12-12.34,9.46-11.42,9.62-13.45,12.88-17.25,27.48-6.29-2-13-3.14-18.65-6.23-16.54-9-19-24.12-6.56-39.06,14.31-17.18,33.46-28.05,52.21-39.57,16.32-10,32-21.15,47.53-32.34,4.85-3.48,8.8-8.46,12.46-13.28C449.27,294,453.42,280.61,442.23,265Z" transform="translate(-16.27 -96.84)" style="fill:url(#radial-gradient-3)"/><path id="path1" d="M160.5,268.59c-29.21-7.43-40.93-35.53-26.13-61.12,10-17.22,24.71-30,40.61-41.54,20.45-14.87,41.24-29.32,61.06-45,6.45-5.1,10.32-13.45,17-22.5,8-1.48,20.64,4.46,27.2,15.16,5.16,8.43,4,17.67-4.09,27.79-14.62,18.3-34.85,29.16-54.42,41-14.31,8.66-28.15,18.12-41.82,27.76a74.65,74.65,0,0,0-13.73,13.33C155,237,148.38,251.38,160.5,268.59Z" transform="translate(-16.27 -96.84)" style="fill:url(#radial-gradient-4)"/></g><g id="logo_name" data-name="logo name"><path id="logo_R" data-name="logo R" d="M163.49,541.54a5.26,5.26,0,0,1-2.57-.47,3.43,3.43,0,0,1-1.32-1.44,49.59,49.59,0,0,0-3.07-5q-2-2.82-4.27-5.82c-1.54-2-3.24-4-5.07-6a65,65,0,0,0-5.65-5.43H128.13v24.16h-10c-2,0-3-.66-3-2V482.36q5.5-.71,12.41-1.18t13.92-.47q15,0,21.82,4.56T170,499a13.92,13.92,0,0,1-4.33,10.61,24.94,24.94,0,0,1-11.47,5.82,62.87,62.87,0,0,1,6.08,5.91q3.08,3.39,5.77,7t4.89,7a58.63,58.63,0,0,1,3.45,6.17Zm-21.57-31.2a36.3,36.3,0,0,0,6.08-.48,14.12,14.12,0,0,0,4.89-1.69,8.22,8.22,0,0,0,3.2-3.43,12.36,12.36,0,0,0,1.13-5.61,13.29,13.29,0,0,0-1-5.56,8.32,8.32,0,0,0-2.94-3.48,12.31,12.31,0,0,0-5-1.78,45,45,0,0,0-7-.48q-4.26,0-7.65.18c-2.25.11-4.09.26-5.51.43v21.9Z" transform="translate(-16.27 -96.84)" style="fill:url(#linear-gradient)"/><path id="logo_E" data-name="logo E" d="M236.71,541.54H189.19c-2,0-3-.66-3-2V481.31h46.15c1.92,0,2.88.67,2.88,2v5.48H199.35V507.3h29.72c1.92,0,2.88.67,2.88,2v5.56h-32.6v19.21H233.7a4,4,0,0,1,2.2.52,1.66,1.66,0,0,1,.81,1.48Z" transform="translate(-16.27 -96.84)" style="fill:url(#linear-gradient-2)"/><path id="logo_J" data-name="logo J" d="M280.85,522.25a30.88,30.88,0,0,1-1.13,8.86,13.88,13.88,0,0,1-3.82,6.26,16.73,16.73,0,0,1-7.21,3.74,44.85,44.85,0,0,1-11.41,1.22,61,61,0,0,1-6.34-.26,28.57,28.57,0,0,1-3.95-.7,2.52,2.52,0,0,1-1.56-1.09,3.23,3.23,0,0,1-.32-1.43v-4.43c1.67.11,3.14.19,4.39.21s2.72,0,4.39,0a25.41,25.41,0,0,0,7.4-.87,9.23,9.23,0,0,0,4.14-2.39,7.65,7.65,0,0,0,1.82-3.65,23.27,23.27,0,0,0,.43-4.65V481.31h10.16c2,0,3,.67,3,2Z" transform="translate(-16.27 -96.84)" style="fill:url(#linear-gradient-3)"/><path id="logo_O" data-name="logo O" d="M350.44,536.68a23.17,23.17,0,0,1-10,4.65,60.86,60.86,0,0,1-12.85,1.26,60.08,60.08,0,0,1-12.79-1.26,23.12,23.12,0,0,1-9.9-4.65,21.67,21.67,0,0,1-6.4-9.48q-2.25-6.08-2.26-15.73t2.26-15.73a21.7,21.7,0,0,1,6.4-9.47,23.12,23.12,0,0,1,9.9-4.65,60.08,60.08,0,0,1,12.79-1.26,60.86,60.86,0,0,1,12.85,1.26,23.17,23.17,0,0,1,10,4.65,21.7,21.7,0,0,1,6.4,9.47q2.25,6.09,2.26,15.73t-2.26,15.73A21.67,21.67,0,0,1,350.44,536.68Zm-14.17-2.87a11.5,11.5,0,0,0,5.58-4,17.35,17.35,0,0,0,2.95-7.21,71.33,71.33,0,0,0,0-22.34,17.47,17.47,0,0,0-2.95-7.21,11.26,11.26,0,0,0-5.51-3.91,33,33,0,0,0-17.43,0,11.24,11.24,0,0,0-5.52,3.91,16.79,16.79,0,0,0-2.88,7.21,76.49,76.49,0,0,0,0,22.34,16.69,16.69,0,0,0,2.88,7.21,11.32,11.32,0,0,0,5.52,3.92,27.5,27.5,0,0,0,8.71,1.17A27.87,27.87,0,0,0,336.27,533.81Z" transform="translate(-16.27 -96.84)" style="fill:url(#linear-gradient-4)"/><path id="logo_D" data-name="logo D" d="M377.9,541.54c-2,0-3-.66-3-2V482.36c1.93-.23,4-.45,6.21-.66s4.47-.37,6.77-.52,4.54-.26,6.71-.34,4.22-.13,6.14-.13a65.27,65.27,0,0,1,15.3,1.56,24.74,24.74,0,0,1,10.53,5.13,20.73,20.73,0,0,1,6.09,9.38,53.34,53.34,0,0,1,0,28.51,21.63,21.63,0,0,1-6,9.43,24,24,0,0,1-10.34,5.22,62.22,62.22,0,0,1-15.11,1.6Zm22.07-7.3a47.27,47.27,0,0,0,9.41-.82,13.21,13.21,0,0,0,6.64-3.35,15.13,15.13,0,0,0,3.89-7.17,49.1,49.1,0,0,0,1.25-12.3,48.47,48.47,0,0,0-1.06-11.16,15,15,0,0,0-3.51-7,12.8,12.8,0,0,0-6.46-3.52,43.48,43.48,0,0,0-9.91-.95c-1.92,0-4.05.05-6.39.17s-4.27.26-5.77.43v45.63Z" transform="translate(-16.27 -96.84)" style="fill:url(#linear-gradient-5)"/><path id="logo_A" data-name="logo A" d="M496.77,541.54c-1.75,0-2.75-.66-3-2q-.88-3.91-1.82-7.52T490,524.77H462q-1.26,4.17-2.26,8.43c-.67,2.84-1.29,5.62-1.88,8.34h-9.65c-1.84,0-2.72-.72-2.64-2.17a37.24,37.24,0,0,1,1.13-5.13q2.26-8.43,5-16.12t5.64-14.43q2.88-6.74,5.83-12.38c2-3.77,3.83-7.1,5.58-10h12.54a4.63,4.63,0,0,1,2.26.44,3.29,3.29,0,0,1,1.25,1.39q2.64,4.42,5.77,10.6t6.21,13.73q3.06,7.57,5.83,16.21t4.76,17.86Zm-8.4-23.9q-2.88-8.34-6.08-15.51T476,488.79q-3,6.16-6.21,13.34t-6.08,15.51Z" transform="translate(-16.27 -96.84)" style="fill:url(#linear-gradient-6)"/></g><g id="logo_caption" data-name="logo caption"><path id="caption_S" data-name="caption S" d="M42.08,599.18a15.14,15.14,0,0,0-3.91-2q-2.28-.81-5.07-1.62c-1.81-.51-3.34-.95-4.57-1.33a13.33,13.33,0,0,1-3-1.27,4.38,4.38,0,0,1-1.64-1.65,5.28,5.28,0,0,1-.49-2.4,5.2,5.2,0,0,1,.46-2.27A3.71,3.71,0,0,1,25.38,585a8.82,8.82,0,0,1,2.9-1,24,24,0,0,1,4.54-.36c1.91,0,3.77.07,5.59.19s3.58.28,5.31.46v-2.48a2.16,2.16,0,0,0-.25-1.06,2.37,2.37,0,0,0-1.36-.83,28.83,28.83,0,0,0-4.54-.73,57.5,57.5,0,0,0-5.86-.3c-5.27,0-9.15.86-11.67,2.59a8.78,8.78,0,0,0-3.77,7.73,9.42,9.42,0,0,0,.84,4.19,8.24,8.24,0,0,0,2.41,2.92,15.13,15.13,0,0,0,3.84,2.08c1.51.58,3.25,1.13,5.2,1.67s3.41,1,4.65,1.36a13.84,13.84,0,0,1,3,1.27,3.93,3.93,0,0,1,1.58,1.64,6,6,0,0,1,.45,2.49,6.66,6.66,0,0,1-.42,2.43,3.83,3.83,0,0,1-1.5,1.81,8.47,8.47,0,0,1-3,1.14,24.21,24.21,0,0,1-4.86.4q-3.34,0-6.32-.27c-2-.18-3.78-.36-5.41-.54v2.71a1.69,1.69,0,0,0,.35,1.08,2.47,2.47,0,0,0,1.26.7,33.94,33.94,0,0,0,4.88.84,59.58,59.58,0,0,0,6.5.35q7.68,0,11.73-2.52t4.05-8.35a10,10,0,0,0-.87-4.45A8.25,8.25,0,0,0,42.08,599.18Z" transform="translate(-16.27 -96.84)" style="fill:url(#linear-gradient-7)"/><path id="caption_E1" data-name="caption E1" d="M81.47,612.56a2.06,2.06,0,0,0-1.23-.32H61.11v-12H79.27v-3.46c0-.83-.54-1.24-1.61-1.24H61.11V584.08h20v-3.41c0-.83-.53-1.24-1.6-1.24H53.77v36.21c0,.83.56,1.24,1.68,1.24H81.92v-3.4A1.07,1.07,0,0,0,81.47,612.56Z" transform="translate(-16.27 -96.84)" style="fill:url(#linear-gradient-8)"/><path id="caption_R1" data-name="caption R1" d="M118,608.67q-1.5-2.22-3.21-4.33a37.33,37.33,0,0,0-3.39-3.67,13.39,13.39,0,0,0,6.39-3.62,9.19,9.19,0,0,0,2.41-6.6q0-5.72-3.77-8.56t-12.15-2.84q-3.92,0-7.75.3t-6.92.73v35.56c0,.83.56,1.24,1.68,1.24h5.59v-15h7.47a35.5,35.5,0,0,1,3.14,3.38q1.55,1.86,2.83,3.73c.86,1.24,1.65,2.45,2.37,3.62a29.73,29.73,0,0,1,1.72,3.1,2.08,2.08,0,0,0,.73.9,2.76,2.76,0,0,0,1.43.29h6.08a39,39,0,0,0-1.92-3.83C119.9,611.6,119,610.15,118,608.67Zm-7.33-12.54a7.4,7.4,0,0,1-2.72,1,18.12,18.12,0,0,1-3.39.3H96.87V583.86c.79-.11,1.81-.2,3.07-.27s2.68-.11,4.26-.11a22.45,22.45,0,0,1,3.91.3,6.41,6.41,0,0,1,2.76,1.11,5,5,0,0,1,1.64,2.16,9.17,9.17,0,0,1,.56,3.46,8.36,8.36,0,0,1-.63,3.48A4.9,4.9,0,0,1,110.66,596.13Z" transform="translate(-16.27 -96.84)" style="fill:url(#linear-gradient-9)"/><path id="caption_V" data-name="caption V" d="M159,579.43h-5.51c-.33,2-.76,4.23-1.3,6.65s-1.18,5-2,7.7-1.69,5.55-2.76,8.48-2.31,5.92-3.7,9c-1.4-3-2.62-5.87-3.67-8.76s-1.95-5.64-2.72-8.27-1.41-5.09-1.92-7.37-.94-4.34-1.26-6.14c-.14-.83-.7-1.24-1.68-1.24h-6.28c.56,3.06,1.28,6.21,2.16,9.43s1.89,6.41,3,9.57,2.3,6.2,3.56,9.16,2.53,5.67,3.84,8.16a2.15,2.15,0,0,0,.73.84,2.76,2.76,0,0,0,1.43.29h6.71c1.26-2.27,2.5-4.82,3.74-7.64s2.38-5.71,3.45-8.62,2-5.8,2.9-8.62,1.55-5.4,2.06-7.71l.77-3.51C160.86,579.88,160.33,579.43,159,579.43Z" transform="translate(-16.27 -96.84)" style="fill:url(#linear-gradient-10)"/><path id="caption_I1" data-name="caption I1" d="M173.41,579.43h-5.66v36.21c0,.83.56,1.24,1.68,1.24h5.66V580.67C175.09,579.84,174.53,579.43,173.41,579.43Z" transform="translate(-16.27 -96.84)" style="fill:url(#linear-gradient-11)"/><path id="caption_N" data-name="caption N" d="M216.22,579.43h-5.31v27.51c-.79-1.26-1.71-2.68-2.76-4.24s-2.14-3.19-3.28-4.87-2.29-3.36-3.46-5.05-2.29-3.3-3.38-4.81-2.1-2.9-3-4.16-1.66-2.31-2.27-3.14a5.54,5.54,0,0,0-.83-.89,1.83,1.83,0,0,0-1.19-.35h-5.87v36.21c0,.83.56,1.24,1.68,1.24h5.31V588.51c.6.83,1.37,1.9,2.3,3.21s2,2.78,3.07,4.38,2.29,3.3,3.5,5.08l3.56,5.27c1.16,1.73,2.26,3.39,3.28,5s1.91,3,2.66,4.22a2.09,2.09,0,0,0,1.88,1.24h5.8V580.67C217.9,579.84,217.34,579.43,216.22,579.43Z" transform="translate(-16.27 -96.84)" style="fill:url(#linear-gradient-12)"/><path id="caption_G" data-name="caption G" d="M257.15,597.1h-12.5v3.41a1.13,1.13,0,0,0,.41.92,1.7,1.7,0,0,0,1.05.32h6V612.4q-1.12.17-2.55.24c-1,.05-2,.08-3,.08a24.6,24.6,0,0,1-5.48-.54,7.68,7.68,0,0,1-3.88-2.13,10.13,10.13,0,0,1-2.3-4.49,30.43,30.43,0,0,1-.77-7.65,31.52,31.52,0,0,1,.66-7.13,9.43,9.43,0,0,1,2.13-4.32,7.52,7.52,0,0,1,3.91-2.14,27,27,0,0,1,6-.57c1.68,0,3.48.07,5.41.19s3.58.26,4.93.41v-2.43a2.05,2.05,0,0,0-.25-1.14,2,2,0,0,0-1.08-.65,24.09,24.09,0,0,0-3.95-.84,42.43,42.43,0,0,0-6.25-.4,32,32,0,0,0-8.59,1,12.6,12.6,0,0,0-9.25,9.24,38.69,38.69,0,0,0-.07,17.86,13.74,13.74,0,0,0,3.28,6,13.33,13.33,0,0,0,6,3.43,33.49,33.49,0,0,0,9.18,1.08,52.56,52.56,0,0,0,6.88-.43,40.21,40.21,0,0,0,5.76-1.19V598.34C258.82,597.52,258.26,597.1,257.15,597.1Z" transform="translate(-16.27 -96.84)" style="fill:url(#linear-gradient-13)"/><path id="caption_W" data-name="caption W" d="M328,579.43h-5.44A125.92,125.92,0,0,1,320,594.94q-1.79,7.78-4.16,15.24l-7.26-26.43a1.61,1.61,0,0,0-.59-.94,1.93,1.93,0,0,0-1.23-.35h-5.65l-7.83,27.67q-2.24-7.51-3.94-14.87a120.19,120.19,0,0,1-2.48-14.48,1.41,1.41,0,0,0-1.61-1.35h-5.93q.48,4.22,1.43,9c.63,3.19,1.36,6.39,2.2,9.62s1.77,6.35,2.79,9.37,2.07,5.79,3.14,8.27a2.6,2.6,0,0,0,.74.92,2.48,2.48,0,0,0,1.36.27H297l7.61-26.8,7.19,25.45a2,2,0,0,0,.63,1,2.09,2.09,0,0,0,1.26.32h6.14c1.12-2.63,2.17-5.38,3.15-8.27s1.86-5.76,2.65-8.64,1.48-5.69,2.06-8.41,1.06-5.21,1.43-7.48c.1-.69.18-1.28.25-1.79s.12-1,.17-1.51C329.59,579.88,329.11,579.43,328,579.43Z" transform="translate(-16.27 -96.84)" style="fill:url(#linear-gradient-14)"/><path id="caption_I2" data-name="caption I2" d="M342.77,579.43h-5.66v36.21c0,.83.56,1.24,1.68,1.24h5.66V580.67C344.45,579.84,343.89,579.43,342.77,579.43Z" transform="translate(-16.27 -96.84)" style="fill:url(#linear-gradient-15)"/><path id="caption_T" data-name="caption T" d="M382.51,579.43H351.22v3.51c0,.83.56,1.25,1.68,1.25H364v31.45c0,.83.56,1.24,1.68,1.24h5.66V584.19h12.85v-3.52a1.09,1.09,0,0,0-.46-.92A2.1,2.1,0,0,0,382.51,579.43Z" transform="translate(-16.27 -96.84)" style="fill:url(#linear-gradient-16)"/><path id="caption_H" data-name="caption H" d="M421.83,579.43h-5.66v15.89H398.22V580.67a1.08,1.08,0,0,0-.45-.92,2.1,2.1,0,0,0-1.22-.32h-5.66v36.21c0,.83.56,1.24,1.68,1.24h5.65V600.07h17.95v15.57a1.05,1.05,0,0,0,.46.92,2.1,2.1,0,0,0,1.22.32h5.66V580.67C423.51,579.84,423,579.43,421.83,579.43Z" transform="translate(-16.27 -96.84)" style="fill:url(#linear-gradient-17)"/><path id="caption_C" data-name="caption C" d="M473.44,612a28.85,28.85,0,0,0-3.28.27,41.87,41.87,0,0,1-5.1.27,18.58,18.58,0,0,1-5-.59,7,7,0,0,1-3.46-2.19,10.89,10.89,0,0,1-2.06-4.46,32.58,32.58,0,0,1-.69-7.41,35.11,35.11,0,0,1,.55-6.83,9.92,9.92,0,0,1,1.89-4.35,7.07,7.07,0,0,1,3.49-2.3,18,18,0,0,1,5.31-.68c1.77,0,3.48.07,5.13.19s3.16.26,4.51.41v-2.54a1.9,1.9,0,0,0-.32-1.14,2.2,2.2,0,0,0-1.15-.7,21,21,0,0,0-4.08-.78,44.67,44.67,0,0,0-5.07-.3,27.63,27.63,0,0,0-8.17,1.05,12.32,12.32,0,0,0-5.48,3.38,14,14,0,0,0-3.11,6,34.91,34.91,0,0,0-1,8.86,34.44,34.44,0,0,0,1,8.79,14.28,14.28,0,0,0,3.11,6,12.4,12.4,0,0,0,5.41,3.43,25.41,25.41,0,0,0,7.89,1.08,41.81,41.81,0,0,0,6.53-.46,40.43,40.43,0,0,0,4.86-1.06v-2.64C475.19,612.45,474.6,612,473.44,612Z" transform="translate(-16.27 -96.84)" style="fill:url(#linear-gradient-18)"/><path id="caption_A" data-name="caption A" d="M508.4,595.7q-1.72-4.71-3.46-8.54c-1.16-2.56-2.24-4.76-3.21-6.6a2.05,2.05,0,0,0-.7-.86,2.36,2.36,0,0,0-1.26-.27h-7q-1.47,2.7-3.11,6.21c-1.1,2.35-2.18,4.91-3.25,7.71s-2.12,5.78-3.14,9-2,6.53-2.8,10a26.43,26.43,0,0,0-.62,3.19c-.05.9.44,1.35,1.46,1.35h5.38q.5-2.53,1.05-5.19t1.26-5.24h15.57c.37,1.52.73,3,1.08,4.52s.69,3,1,4.67c.13.83.69,1.24,1.67,1.24h5.94q-1.12-5.73-2.66-11.1T508.4,595.7ZM489.92,602q1.6-5.19,3.39-9.65t3.46-8.29c1.16,2.56,2.34,5.32,3.52,8.29s2.32,6.19,3.39,9.65Z" transform="translate(-16.27 -96.84)" style="fill:url(#linear-gradient-19)"/><path id="caption_R2" data-name="caption R2" d="M549.53,608.67q-1.5-2.22-3.21-4.33a37.33,37.33,0,0,0-3.39-3.67,13.39,13.39,0,0,0,6.39-3.62,9.19,9.19,0,0,0,2.41-6.6q0-5.72-3.77-8.56t-12.15-2.84q-3.91,0-7.75.3c-2.57.2-4.87.44-6.92.73v35.56c0,.83.56,1.24,1.68,1.24h5.58v-15h7.48a35.5,35.5,0,0,1,3.14,3.38c1,1.24,2,2.48,2.83,3.73s1.65,2.45,2.37,3.62a31.72,31.72,0,0,1,1.72,3.1,2,2,0,0,0,.73.9,2.76,2.76,0,0,0,1.43.29h6.08a39,39,0,0,0-1.92-3.83C551.44,611.6,550.53,610.15,549.53,608.67Zm-7.33-12.54a7.38,7.38,0,0,1-2.73,1,17.93,17.93,0,0,1-3.38.3H528.4V583.86c.8-.11,1.82-.2,3.08-.27s2.67-.11,4.26-.11a22.45,22.45,0,0,1,3.91.3,6.41,6.41,0,0,1,2.76,1.11,5,5,0,0,1,1.64,2.16,9.17,9.17,0,0,1,.56,3.46A8.36,8.36,0,0,1,544,594,4.9,4.9,0,0,1,542.2,596.13Z" transform="translate(-16.27 -96.84)" style="fill:url(#linear-gradient-20)"/><path id="caption_E2" data-name="caption E2" d="M588.43,612.56a2,2,0,0,0-1.22-.32H568.07v-12h18.16v-3.46c0-.83-.53-1.24-1.6-1.24H568.07V584.08h20v-3.41c0-.83-.54-1.24-1.61-1.24h-25.7v36.21c0,.83.56,1.24,1.68,1.24h26.47v-3.4A1.08,1.08,0,0,0,588.43,612.56Z" transform="translate(-16.27 -96.84)" style="fill:url(#linear-gradient-21)"/></g></svg>