<?xml version="1.0" encoding="utf-8"?>
<!-- Generator: Adobe Illustrator 28.0.0, SVG Export Plug-In . SVG Version: 6.00 Build 0)  -->
<svg version="1.1" id="Layer_1" xmlns="http://www.w3.org/2000/svg" xmlns:xlink="http://www.w3.org/1999/xlink" x="0px" y="0px"
	 viewBox="0 0 435 1291.4" style="enable-background:new 0 0 435 1291.4;" xml:space="preserve">
<style type="text/css">
	.st0{fill:#FFFFFF;}
</style>
<g id="UotUwF.tif">
</g>
<path class="st0" d="M19.4,616.9c0,118.4,0,237,0,355.4c0,9.2-0.3,18.5,1,27.8c1.8,12.5,5.4,24,14.5,33.2
	c11.4,11.5,25.8,16.3,41.7,16.4c83.5,0.2,167.1,0.1,250.5,0c14,0,28,0.9,41.9-1c15.3-2.1,28.5-8.1,37.5-21.3
	c8.1-11.8,10.6-25.1,10.6-38.9c0.1-235.1,0.1-470.2,0-705.3c0-15.7,1-31.4-1-47c-2.3-19-10.4-34.4-28.3-43.3
	c-12.6-6.3-26.4-7-39.9-7.1c-44.7-0.3-225.6-0.1-253.9-0.2c-9.8,0-19.6,0.6-29.2,2.2c-10.1,1.6-19.5,5.2-27.3,12.3
	c-13.7,12.4-18.3,28.6-18.3,46.1C19.3,369.8,19.4,493.4,19.4,616.9z"/>
</svg>
