<?xml version="1.0" encoding="utf-8"?>
<!-- Generator: Adobe Illustrator 25.4.1, SVG Export Plug-In . SVG Version: 6.00 Build 0)  -->
<svg version="1.1" id="Layer_1" xmlns="http://www.w3.org/2000/svg" xmlns:xlink="http://www.w3.org/1999/xlink" x="0px" y="0px"
	 viewBox="0 0 435 884.2" style="enable-background:new 0 0 435 884.2;" xml:space="preserve">
<style type="text/css">
	.st0{fill:none;}
	.st1{fill:#1A1C1E;}
	.st2{fill:#494D54;}
</style>
<rect y="-2.7" class="st0" width="435" height="889"/>
<g id="batery">
	<g>
		<path class="st1" d="M357.8,48.3c0-2.4,0-4.8,0-7.1c0.2-1.1,0.9-1.8,2-2.2c5.8,0,11.5,0,17.3,0c1.5,0.5,2,1.5,1.9,3
			c-0.1,2,0,4,0,6c0,1.5-1,2.5-2.6,2.5c-5.3,0-10.7,0-16,0c-0.2,0-0.5,0-0.7-0.1C358.6,50.1,358,49.3,357.8,48.3z M368.4,49.5
			c2.6,0,5.3,0,7.9,0c1.1,0,1.7-0.5,1.7-1.7c0-2.1,0-4.1,0-6.2c0-1.1-0.6-1.7-1.7-1.7c-5.3,0-10.6,0-15.9,0c-1.1,0-1.7,0.5-1.7,1.7
			c0,2.1,0,4.1,0,6.2c0,1.1,0.6,1.7,1.7,1.7C363.1,49.5,365.7,49.5,368.4,49.5z"/>
		<path class="st1" d="M380,42.4c1.1,0.1,1.9,1.1,1.9,2.2c0,1.2-0.7,2.2-1.9,2.3C380,45.5,380,44,380,42.4z"/>
		<path class="st1" d="M373.2,40.9c0,2.5,0,5,0,7.6c-0.2,0-0.4,0-0.5,0c-3.9,0-7.7,0-11.6,0c-1,0-1.3-0.3-1.3-1.3c0-1.7,0-3.5,0-5.2
			c0-0.7,0.3-1.1,1-1.1c4.1,0,8.1,0,12.2,0C373,40.9,373.1,40.9,373.2,40.9z"/>
	</g>
</g>
<g id="wifi">
	<g>
		<path class="st1" d="M336.9,44.3c-0.7-0.7-1.3-1.3-2-2c4.2-4.4,11.8-4.6,16.3,0c-0.7,0.7-1.3,1.3-2,2c-1.7-1.6-3.7-2.5-6.1-2.5
			C340.6,41.8,338.6,42.7,336.9,44.3z"/>
		<path class="st1" d="M346.1,47.3c-1.7-1.6-4.4-1.6-6.1,0c-0.7-0.7-1.3-1.3-2-2c2.3-2.5,7.1-3,10.1,0
			C347.4,46,346.7,46.7,346.1,47.3z"/>
		<path class="st1" d="M341,48.4c0.9-1.1,3-1.1,4,0c-0.7,0.7-1.3,1.3-2,2C342.4,49.8,341.7,49.1,341,48.4z"/>
	</g>
</g>
<g id="network">
	<g>
		<path class="st1" d="M328.7,49.8c-0.1,0.4-0.4,0.5-0.8,0.5c-0.7,0-1.5,0-2.2,0c-0.5,0-0.7-0.2-0.7-0.7c0-3.3,0-6.7,0-10
			c0-0.5,0.2-0.7,0.7-0.7c0.7,0,1.5,0,2.2,0c0.4,0,0.7,0.1,0.8,0.5C328.7,42.9,328.7,46.4,328.7,49.8z"/>
		<path class="st1" d="M323.8,45.4c0,1.4,0,2.7,0,4.1c0,0.5-0.2,0.7-0.8,0.7c-0.7,0-1.5,0-2.2,0c-0.5,0-0.7-0.2-0.7-0.7
			c0-2.8,0-5.6,0-8.4c0-0.4,0.2-0.7,0.7-0.7c0.8,0,1.5,0,2.3,0c0.4,0,0.7,0.2,0.7,0.7C323.8,42.6,323.8,44,323.8,45.4z"/>
		<path class="st1" d="M315.2,46.6c0-1,0-2,0-2.9c0-0.5,0.2-0.7,0.7-0.7c0.7,0,1.5,0,2.2,0c0.5,0,0.7,0.2,0.7,0.7c0,2,0,3.9,0,5.9
			c0,0.5-0.2,0.7-0.7,0.7c-0.8,0-1.5,0-2.3,0c-0.5,0-0.7-0.2-0.7-0.7C315.2,48.6,315.2,47.6,315.2,46.6z"/>
		<path class="st1" d="M314,47.9c0,0.6,0,1.1,0,1.7c0,0.5-0.2,0.7-0.7,0.7c-0.8,0-1.5,0-2.3,0c-0.5,0-0.7-0.2-0.7-0.7
			c0-1.2,0-2.3,0-3.5c0-0.4,0.2-0.7,0.7-0.7c0.8,0,1.5,0,2.3,0c0.4,0,0.7,0.2,0.7,0.7C314,46.7,314,47.3,314,47.9z"/>
	</g>
</g>
<g id="time">
	<path class="st1" d="M76.8,43.4L76.8,43.4l-2.5,1.7v-1.8l2.5-1.7h2v9.7h-2V43.4z"/>
	<path class="st1" d="M81.2,48.5h1.9c0.1,0.8,0.8,1.4,1.8,1.4c1.1,0,1.8-0.7,1.8-1.8s-0.7-1.8-1.8-1.8c-0.7,0-1.4,0.3-1.7,0.9h-1.8
		l0.5-5.6H88v1.6h-4.6l-0.2,2.7l0,0c0.4-0.7,1.2-1.1,2.2-1.1c1.9,0,3.2,1.4,3.2,3.3c0,2.1-1.5,3.5-3.7,3.5
		C82.8,51.4,81.3,50.2,81.2,48.5z"/>
	<path class="st1" d="M90,45.4c0-0.6,0.5-1.1,1.1-1.1s1.1,0.5,1.1,1.1s-0.5,1.1-1.1,1.1S90,46,90,45.4z M90,50.2
		c0-0.6,0.5-1.1,1.1-1.1s1.1,0.5,1.1,1.1s-0.5,1.1-1.1,1.1S90,50.8,90,50.2z"/>
	<path class="st1" d="M96.2,45.5h1.2c0.9,0,1.6-0.6,1.6-1.4c0-0.8-0.6-1.3-1.6-1.3c-0.9,0-1.6,0.6-1.6,1.4h-1.9c0.1-1.8,1.5-3,3.6-3
		c2,0,3.4,1,3.4,2.6c0,1.2-0.8,2.1-2,2.3l0,0c1.4,0.1,2.4,1,2.4,2.3c0,1.7-1.6,2.9-3.8,2.9c-2.2,0-3.6-1.2-3.7-3h1.9
		c0.1,0.8,0.7,1.4,1.8,1.4c1,0,1.7-0.6,1.7-1.4c0-0.9-0.7-1.4-1.8-1.4h-1.2V45.5z"/>
	<path class="st1" d="M103.3,49.7c-0.5-0.8-0.8-1.9-0.8-3.2c0-3.2,1.6-5.2,4.1-5.2c1.9,0,3.3,1.1,3.6,2.7h-2
		c-0.2-0.6-0.8-1.1-1.6-1.1c-1.4,0-2.2,1.3-2.1,3.5l0,0c0.4-0.9,1.3-1.6,2.6-1.6c1.8,0,3.2,1.4,3.2,3.2c0,2-1.6,3.4-3.7,3.4
		C105.1,51.5,104,50.8,103.3,49.7z M108.3,48.1c0-1-0.7-1.7-1.8-1.7c-1,0-1.8,0.7-1.8,1.7s0.8,1.8,1.8,1.8
		C107.5,49.8,108.3,49.1,108.3,48.1z"/>
</g>
<g id="UotUwF.tif">
</g>
<g id="outer_x5F_casing">
	<path id="outer_x5F_casing_00000170251167459552945880000002773907383485507200_" class="st1" d="M59.8,883.2
		c-27.4-5-45.8-20.2-53.4-47.4C3,823.9,2.9,508.2,2.9,362.5c0-2.1-1.6-4.3-3.1-6.2c0-19.4,0-38.8,0-58.2c1.4-6.2,1.8-12.5,0-18.7
		c0-19.4,0-38.8,0-58.2c2-8.3,1.8-6,2.3-14.3c0.1-1.6,1-14-0.2-15.4c0-9.5,0.1-19,0.1-28.5c1.5-1.7,0.9-3.8,0.9-5.7
		c0-26.5,0-52.9,0-79.4c0-9.7,0.8-19.3,3-28.7C12.1,22.5,33,3.7,60.3-0.1c11.4-1.6,318.2,0.9,326.1,3c13.5,3.6,24.1,10.7,32.4,21.5
		c12.6,16.5,14,36.1,14.6,55.8c-0.7,0.5-1,52.4-1,128.6c0,4.1,2.9,8.2,2.9,12.4c0,22.4,0,47.5,0,72.9c0,4.1-2.8,7.4-2.8,11.5
		c0.3,171.8,1.2,392.9,1.2,477.8c0,1.7-0.7,30-1.5,38.8c-1,11.2-3.8,21.6-9.5,31.1c-12,19.9-30.8,28.4-53.1,30.9
		C367,884.5,64.5,884,59.8,883.2z M22,439.7c0,116.9,0,233.9,0,350.8c0,9.1-0.3,18.3,1,27.4c1.8,12.3,5.3,23.7,14.3,32.8
		c11.3,11.4,25.5,16.1,41.2,16.2c82.4,0.2,164.9,0.1,247.3,0c13.8,0,27.6,0.9,41.4-1c15.1-2.1,28.1-8,37-21
		c8-11.6,10.5-24.8,10.5-38.4c0.1-232.1,0.1-464.1,0-696.2c0-15.5,1-31-1-46.4c-2.3-18.8-10.3-34-27.9-42.7
		c-12.4-6.2-26.1-6.9-39.4-7c-44.1-0.3-222.7-0.1-250.6-0.2c-9.7,0-19.3,0.6-28.8,2.2c-10,1.6-19.2,5.1-26.9,12.1
		C26.6,40.5,22,56.5,22,73.8C21.9,195.8,22,317.8,22,439.7z M176.1,5.5c0,0.3,0,0.7,0,1c28.2,0,56.4,0,84.6,0c0-0.3,0-0.7,0-1
		C232.6,5.5,204.4,5.5,176.1,5.5z"/>
	<path id="speaker" class="st2" d="M176.1,5.5c28.2,0,56.5,0,84.7,0c0,0.5,0,1.3,0,1.8c-28.2,0-56.4,0-84.6,0
		C176.2,6.8,176.1,6.3,176.1,5.5z"/>
	<path id="dynamic_x5F_island" class="st1" d="M218.2,25.2c14.3,0,28.6,0.5,42.9-0.1c11.7-0.5,19.5,8.6,19.7,18
		c0.3,10.3-7.8,18.9-19,19c-29,0.3-57.9,0.2-86.9,0c-9-0.1-17.3-5.5-18.5-12.6c-1.6-9-1.4-14.8,7.1-21.3c2.7-2.1,5.7-3.1,9.3-3.1
		C187.9,25.3,203,25.2,218.2,25.2z M262.7,48.2c2.3-0.4,5-1.7,4.9-5c-0.1-3.2-2.5-4.9-5.7-4.9c-3.5-0.1-5.1,1.8-5,5.2
		C257,46.7,258.8,48.2,262.7,48.2z"/>
	<path id="front_x5F_camera" class="st2" d="M263.7,51.7c-6.6,0-9.7-2.5-9.8-8c-0.2-5.8,2.7-9,8.5-8.8c5.4,0.2,9.5,2.9,9.7,8.3
		C272,48.8,267.6,51,263.7,51.7z"/>
</g>
</svg>
